<svg class="fill-indigo-500" viewBox="0 0 50 50" fill="none" xmlns="http://www.w3.org/2000/svg">
    <path d="M42.6471 40.625H10.2941C9.85294 40.625 9.41177 40.3125 9.11765 40C8.82353 39.6875 8.82353 39.0625 8.97059 38.5938L11.7647 31.0937L8.97059 3.125H0V0H10.2941C11.0294 0 11.6176 0.624999 11.7647 1.40625L14.7059 31.0937C14.7059 31.4062 14.7059 31.5625 14.5588 31.875L12.5 37.5H44.1176L42.6471 40.625Z" fill="#BE54E3"></path>
    <path d="M13.5294 32.8125L12.9412 29.6875L47.0588 22.1875V9.375H11.7647V6.25H48.5294C49.4117 6.25 50 6.875 50 7.8125V23.4375C50 24.2188 49.5588 24.8437 48.8235 25L13.5294 32.8125V32.8125ZM44.1176 50C40.8823 50 38.2353 47.1875 38.2353 43.75C38.2353 40.3125 40.8823 37.5 44.1176 37.5C47.3529 37.5 50 40.3125 50 43.75C50 47.1875 47.3529 50 44.1176 50ZM44.1176 40.625C42.5 40.625 41.1765 42.0312 41.1765 43.75C41.1765 45.4688 42.5 46.875 44.1176 46.875C45.7353 46.875 47.0588 45.4688 47.0588 43.75C47.0588 42.0312 45.7353 40.625 44.1176 40.625ZM8.82351 50C5.58822 50 2.94116 47.1875 2.94116 43.75C2.94116 40.3125 5.58822 37.5 8.82351 37.5C12.0588 37.5 14.7059 40.3125 14.7059 43.75C14.7059 47.1875 12.0588 50 8.82351 50ZM8.82351 40.625C7.20587 40.625 5.88234 42.0312 5.88234 43.75C5.88234 45.4688 7.20587 46.875 8.82351 46.875C10.4412 46.875 11.7647 45.4688 11.7647 43.75C11.7647 42.0312 10.4412 40.625 8.82351 40.625Z" fill="#BE54E3"></path>
</svg>