<svg width="20" height="20" viewBox="0 0 20 20" fill="none" xmlns="http://www.w3.org/2000/svg">
<g clip-path="url(#clip0_2_11)">
<path d="M18.125 0H1.875C0.84375 0 0 0.84375 0 1.875V18.125C0 19.1562 0.84375 20 1.875 20H18.125C19.1562 20 20 19.1562 20 18.125V1.875C20 0.84375 19.1562 0 18.125 0ZM7.5 16.25H5V7.5H7.5V16.25ZM6.25 6.25C5.91848 6.25 5.60054 6.1183 5.36612 5.88388C5.1317 5.64946 5 5.33152 5 5C5 4.66848 5.1317 4.35054 5.36612 4.11612C5.60054 3.8817 5.91848 3.75 6.25 3.75C6.58152 3.75 6.89946 3.8817 7.13388 4.11612C7.3683 4.35054 7.5 4.66848 7.5 5C7.5 5.33152 7.3683 5.64946 7.13388 5.88388C6.89946 6.1183 6.58152 6.25 6.25 6.25ZM16.25 16.25H13.75V11.25C13.75 10.9185 13.6183 10.6005 13.3839 10.3661C13.1495 10.1317 12.8315 10 12.5 10C12.1685 10 11.8505 10.1317 11.6161 10.3661C11.3817 10.6005 11.25 10.9185 11.25 11.25V16.25H8.75V7.5H11.25V9.05125C11.765 8.34375 12.555 7.5 13.4375 7.5C14.9925 7.5 16.25 8.89875 16.25 10.625V16.25Z" fill="black"/>
</g>
<defs>
<clipPath id="clip0_2_11">
<rect width="20" height="20" fill="white"/>
</clipPath>
</defs>
</svg>
