<svg width="20" height="20" viewBox="0 0 20 20" fill="none" xmlns="http://www.w3.org/2000/svg">
<path fill-rule="evenodd" clip-rule="evenodd" d="M3.125 0H16.875C18.6009 0 20 1.39911 20 3.125V16.875C20 18.6009 18.6009 20 16.875 20H3.125C1.39911 20 0 18.6009 0 16.875V3.125C0 1.39911 1.39911 0 3.125 0ZM10.4324 7.50462C9.53681 7.87712 7.74681 8.64819 5.06245 9.81769C4.62655 9.991 4.39821 10.1606 4.37743 10.3264C4.34229 10.6066 4.69322 10.717 5.17109 10.8672C5.23609 10.8877 5.30344 10.9089 5.37249 10.9313C5.84264 11.0841 6.47506 11.2629 6.80387 11.2701C7.10206 11.2765 7.43494 11.1536 7.80244 10.9012C10.3105 9.20819 11.6052 8.35244 11.6864 8.334C11.7438 8.321 11.8233 8.30463 11.8771 8.35244C11.9309 8.40031 11.9257 8.49094 11.9199 8.51525C11.8852 8.66344 10.5077 9.94413 9.79481 10.6069C9.57256 10.8134 9.41494 10.96 9.38275 10.9935C9.31056 11.0685 9.23694 11.1394 9.16625 11.2076C8.7295 11.6286 8.40194 11.9444 9.18437 12.46C9.56044 12.7078 9.86131 12.9127 10.1615 13.1171C10.4893 13.3404 10.8163 13.5631 11.2393 13.8404C11.3471 13.911 11.4501 13.9844 11.5503 14.0559C11.9318 14.3279 12.2746 14.5722 12.698 14.5333C12.9441 14.5106 13.1982 14.2793 13.3273 13.5892C13.6324 11.9584 14.232 8.42506 14.3706 6.96906C14.3827 6.8415 14.3674 6.67819 14.3552 6.60656C14.3429 6.53488 14.3173 6.43275 14.2241 6.35719C14.1138 6.26769 13.9434 6.24878 13.8673 6.25006C13.5209 6.25625 12.9896 6.441 10.4324 7.50462V7.50462Z" fill="black"/>
</svg>
