<svg xmlns="http://www.w3.org/2000/svg" width="135" height="40"><path fill="#A6A6A6" d="M130.197 40H4.73A4.739 4.739 0 010 35.267V4.727A4.734 4.734 0 014.73 0h125.467C132.803 0 135 2.12 135 4.726v30.54c0 2.606-2.197 4.734-4.803 4.734z"/><path d="M134.032 35.268a3.83 3.83 0 01-3.834 3.83H4.728a3.835 3.835 0 01-3.838-3.83V4.725A3.84 3.84 0 014.73.89h125.467c2.12 0 3.834 1.72 3.834 3.835l.002 30.543z"/><path d="M30.128 19.784c-.03-3.223 2.64-4.79 2.76-4.864-1.51-2.203-3.852-2.504-4.675-2.528-1.967-.207-3.875 1.177-4.877 1.177-1.022 0-2.565-1.158-4.228-1.124-2.14.033-4.142 1.272-5.24 3.196-2.266 3.923-.576 9.688 1.595 12.86 1.086 1.552 2.355 3.286 4.016 3.225 1.624-.067 2.23-1.036 4.192-1.036 1.943 0 2.513 1.037 4.207.998 1.743-.028 2.84-1.56 3.89-3.127 1.254-1.78 1.758-3.532 1.778-3.622-.04-.014-3.387-1.29-3.42-5.154zm-3.2-9.478c.874-1.093 1.472-2.58 1.306-4.09-1.265.057-2.847.876-3.758 1.945-.806.943-1.526 2.487-1.34 3.94 1.42.105 2.88-.718 3.792-1.794zm26.717 21.198h-2.27l-1.245-3.91h-4.324l-1.185 3.91h-2.21l4.284-13.308h2.646l4.305 13.308zm-3.89-5.55L48.63 22.48c-.12-.355-.342-1.19-.67-2.507h-.04c-.132.566-.343 1.402-.633 2.507l-1.105 3.475h3.573zm14.907.634c0 1.632-.44 2.922-1.323 3.87-.79.842-1.772 1.263-2.943 1.263-1.264 0-2.172-.453-2.725-1.36h-.04v5.054H55.5V25.067c0-1.026-.027-2.08-.08-3.16h1.876l.12 1.522h.04c.71-1.147 1.79-1.72 3.237-1.72 1.132 0 2.077.448 2.833 1.343.758.896 1.136 2.074 1.136 3.535zm-2.172.078c0-.934-.21-1.704-.632-2.31-.46-.632-1.08-.948-1.856-.948-.526 0-1.004.176-1.43.523-.43.35-.71.808-.84 1.374-.066.264-.1.48-.1.65v1.6c0 .698.215 1.287.643 1.768s.984.72 1.668.72c.803 0 1.428-.31 1.875-.927.448-.62.672-1.435.672-2.45zm13.21-.078c0 1.632-.442 2.922-1.325 3.87-.79.842-1.77 1.263-2.94 1.263-1.265 0-2.173-.453-2.725-1.36h-.04v5.054h-2.132V25.067c0-1.026-.027-2.08-.08-3.16h1.876l.12 1.522h.04c.71-1.147 1.788-1.72 3.237-1.72 1.132 0 2.077.448 2.835 1.343.755.896 1.134 2.074 1.134 3.535zm-2.173.078c0-.934-.21-1.704-.633-2.31-.46-.632-1.078-.948-1.855-.948a2.22 2.22 0 00-1.433.523c-.428.35-.707.808-.838 1.374-.066.264-.1.48-.1.65v1.6c0 .698.214 1.287.64 1.768.428.48.984.72 1.67.72.803 0 1.428-.31 1.875-.927.448-.62.672-1.435.672-2.45zm14.513 1.106c0 1.132-.394 2.053-1.183 2.764-.867.777-2.074 1.165-3.625 1.165-1.432 0-2.58-.275-3.45-.828l.495-1.777c.936.566 1.963.85 3.082.85.802 0 1.427-.182 1.876-.544.447-.36.67-.847.67-1.453 0-.54-.184-.995-.553-1.364-.367-.37-.98-.712-1.836-1.03-2.33-.868-3.494-2.14-3.494-3.815 0-1.094.408-1.99 1.225-2.69.814-.698 1.9-1.047 3.258-1.047 1.21 0 2.217.212 3.02.633l-.533 1.738c-.75-.407-1.598-.61-2.547-.61-.75 0-1.336.184-1.756.552-.355.33-.533.73-.533 1.205 0 .526.203.96.61 1.303.356.316 1 .658 1.937 1.027 1.145.46 1.986 1 2.527 1.618.54.616.81 1.387.81 2.307zm7.048-4.264h-2.35v4.66c0 1.184.414 1.776 1.244 1.776.38 0 .697-.033.947-.1l.058 1.62c-.42.157-.973.236-1.658.236-.842 0-1.5-.257-1.975-.77-.473-.514-.71-1.376-.71-2.587v-4.837h-1.4v-1.6h1.4V20.15l2.093-.633v2.39h2.35v1.6zm10.602 3.119c0 1.475-.42 2.686-1.263 3.633-.883.975-2.055 1.46-3.516 1.46-1.407 0-2.528-.466-3.364-1.4s-1.254-2.113-1.254-3.534c0-1.487.43-2.705 1.293-3.652.86-.948 2.023-1.422 3.484-1.422 1.407 0 2.54.467 3.395 1.402.818.907 1.226 2.078 1.226 3.513zm-2.21.07c0-.886-.19-1.645-.573-2.278-.447-.767-1.086-1.15-1.914-1.15-.857 0-1.508.384-1.955 1.15-.383.633-.572 1.404-.572 2.316 0 .885.19 1.644.572 2.276.46.766 1.105 1.148 1.936 1.148.814 0 1.453-.39 1.914-1.168.393-.645.59-1.412.59-2.296zm9.14-2.914c-.21-.04-.435-.06-.67-.06-.75 0-1.33.284-1.74.85-.354.5-.532 1.133-.532 1.896v5.034h-2.13l.02-6.574c0-1.106-.028-2.113-.08-3.02h1.856l.078 1.835h.06c.224-.63.58-1.14 1.065-1.52a2.577 2.577 0 011.54-.514c.198 0 .376.015.534.04v2.033zm9.536 2.469a5 5 0 01-.078.967h-6.396c.025.947.334 1.672.928 2.172.54.447 1.236.67 2.092.67.947 0 1.81-.15 2.588-.453l.334 1.48c-.908.395-1.98.592-3.217.592-1.488 0-2.656-.438-3.506-1.313-.847-.876-1.272-2.05-1.272-3.525 0-1.447.395-2.652 1.186-3.613.828-1.026 1.947-1.54 3.355-1.54 1.382 0 2.43.514 3.14 1.54.563.815.846 1.823.846 3.02zm-2.033-.553c.014-.633-.125-1.18-.414-1.64-.37-.593-.937-.89-1.7-.89-.697 0-1.264.29-1.697.87-.355.46-.566 1.014-.63 1.658h4.44zM43.424 7.273c.227-.136.483-.25.77-.344a3.247 3.247 0 011.015-.142c.626 0 1.12.15 1.482.446s.543.698.543 1.203c0 .4-.12.737-.363 1.01s-.552.452-.927.542v.028c.207.033.403.09.587.17.185.08.347.19.485.325a1.461 1.461 0 01.45 1.076c0 .363-.072.667-.218.913s-.337.446-.573.602c-.235.155-.5.267-.79.334s-.582.1-.873.1c-.31 0-.618-.032-.922-.096s-.585-.17-.844-.32l.262-.805c.168.083.385.164.65.242.265.078.533.116.805.116.446 0 .79-.1 1.033-.3.242-.2.364-.47.364-.805a.995.995 0 00-.146-.558 1.06 1.06 0 00-.38-.345 1.64 1.64 0 00-.518-.174c-.19-.032-.38-.05-.567-.05h-.436V9.65h.437c.2 0 .387-.025.56-.078.17-.05.32-.124.445-.218s.225-.206.296-.335a.91.91 0 00.107-.438c0-.29-.104-.52-.31-.684-.208-.165-.486-.248-.835-.248-.24 0-.48.04-.718.116a5.15 5.15 0 00-.64.252l-.23-.745zm8.331 6.16l-.077-.543h-.03c-.315.433-.774.65-1.376.65-.214 0-.407-.036-.582-.107s-.327-.168-.456-.29c-.13-.124-.23-.27-.3-.438a1.391 1.391 0 01-.107-.553c0-.588.24-1.03.718-1.324.48-.294 1.157-.44 2.037-.44V10.3c0-.62-.326-.93-.978-.93-.465 0-.875.116-1.23.348l-.212-.688c.433-.27.972-.407 1.617-.407 1.232 0 1.85.65 1.85 1.95v1.736c0 .484.022.86.067 1.124h-.942zm-.145-2.347c-.585 0-1.02.074-1.307.223-.286.148-.43.39-.43.727 0 .246.068.43.203.553a.731.731 0 00.512.184c.135 0 .263-.024.386-.073a1.017 1.017 0 00.55-.504.866.866 0 00.086-.383v-.727zm6.073-2.366v.862h-1.96v3.85h-1.047V8.72h3.007zm5.994 2.298c0 .375-.052.718-.155 1.028a2.4 2.4 0 01-.432.795 1.924 1.924 0 01-1.508.7c-.62 0-1.067-.223-1.34-.67h-.02v2.484h-1.047V10.27a38.54 38.54 0 00-.038-1.552h.92l.06.747h.02c.35-.562.88-.844 1.59-.844.278 0 .536.06.772.175.235.117.44.28.615.49.175.21.312.462.412.757.1.295.15.62.15.976zm-1.066.04c0-.234-.027-.45-.082-.646s-.136-.365-.242-.504-.236-.25-.388-.33a1.078 1.078 0 00-.51-.12c-.148 0-.294.032-.437.096s-.266.152-.372.262a1.285 1.285 0 00-.354.893v.785c0 .174.027.336.083.485.055.15.132.278.232.388s.22.196.36.257c.138.062.29.092.46.092.394 0 .7-.15.92-.45s.333-.706.333-1.21zm6.694-2.338l-1.194 3.268c-.283.776-.56 1.41-.828 1.906-.27.495-.525.855-.77 1.082-.363.323-.748.52-1.156.59l-.252-.88c.27-.072.53-.21.776-.418.245-.207.442-.465.592-.776a.594.594 0 00.077-.213c0-.04-.02-.114-.06-.224L64.784 8.72h1.154l.893 2.63c.046.122.09.26.136.416.046.155.094.327.146.514h.02a6.41 6.41 0 00.106-.393c.04-.158.09-.34.155-.548l.796-2.62h1.115zm1.815 1.958h.483c.355 0 .63-.064.824-.194s.29-.288.29-.476c0-.194-.08-.35-.247-.465-.164-.116-.393-.175-.684-.175-.188 0-.377.03-.566.092-.19.062-.367.138-.53.228l-.27-.678c.27-.148.54-.25.81-.305.27-.055.538-.083.81-.083.215 0 .43.02.646.063.215.042.408.113.576.213s.307.23.412.393c.107.163.16.363.16.603 0 .15-.03.28-.088.393a1.017 1.017 0 01-.232.3c-.096.087-.205.16-.324.213-.12.054-.242.095-.363.12v.03c.154.02.305.06.45.117.146.058.276.134.394.228.116.094.21.207.282.34.07.132.105.282.105.45 0 .278-.066.51-.203.698-.135.188-.31.336-.52.446-.21.11-.44.188-.693.237a3.912 3.912 0 01-1.598-.019 2.721 2.721 0 01-.768-.286l.273-.69c.168.092.36.168.576.23s.438.09.664.09c.355 0 .63-.068.82-.207.19-.14.285-.312.285-.52 0-.135-.03-.25-.096-.343s-.156-.17-.27-.228a1.289 1.289 0 00-.41-.12 3.283 3.283 0 00-.503-.035h-.494v-.662zm5.595-1.958v1.667c0 .382-.006.725-.02 1.028-.014.304-.03.624-.05.96l.02.02.364-.724c.12-.235.24-.476.364-.722l1.164-2.23h1.357v4.713h-.99v-1.667c0-.35.01-.698.025-1.047.016-.35.033-.702.053-1.058h-.05a6.66 6.66 0 01-.33.757c-.108.213-.218.433-.327.66-.2.388-.4.776-.598 1.164-.197.387-.406.785-.625 1.192h-1.357V8.72h1zm8.73 0v.862H84.01v3.85h-1.03v-3.85h-1.426V8.72h3.89zm5.345 2.133c0 .09-.005.176-.01.257-.007.08-.017.154-.03.218h-3.143c.014.446.154.79.422 1.033.267.243.622.365 1.06.365.46 0 .884-.074 1.272-.223l.164.728c-.447.194-.973.29-1.582.29-.367 0-.697-.056-.988-.17a2.026 2.026 0 01-.738-.48 2.077 2.077 0 01-.46-.746c-.106-.29-.16-.617-.16-.98s.054-.696.16-1.003c.106-.306.257-.573.45-.8.195-.226.43-.403.703-.533.276-.13.583-.194.92-.194.296 0 .565.053.81.16.242.106.45.258.62.456.17.196.302.433.392.707.092.274.137.58.137.916zm-1-.27c0-.37-.09-.67-.267-.898s-.435-.345-.77-.345c-.306 0-.563.116-.776.35s-.336.53-.37.892h2.182zm5.22-1.825c.188-.032.426-.058.717-.078s.588-.03.893-.03c.193 0 .412.013.654.035s.475.074.693.155c.22.08.404.202.553.364s.225.38.225.66a.915.915 0 01-.288.678c-.09.084-.187.154-.3.208-.113.055-.23.096-.354.12l.01.03c.342.058.62.18.834.37s.32.445.32.775-.092.592-.27.786c-.183.195-.405.34-.67.438-.267.097-.546.16-.84.185-.294.025-.558.04-.79.04-.26 0-.514-.007-.762-.02-.25-.014-.457-.027-.625-.04V8.758zm1.008 1.882h.533c.163 0 .317-.01.462-.034.146-.022.273-.058.383-.106a.664.664 0 00.258-.194c.06-.08.092-.18.092-.296a.5.5 0 00-.268-.47c-.178-.1-.457-.15-.838-.15-.11 0-.206.003-.288.01-.08.006-.19.016-.334.03v1.21zm0 2.085l.324.03c.088.006.19.01.307.01.142 0 .286-.01.435-.03a1.52 1.52 0 00.408-.11.78.78 0 00.295-.223.579.579 0 00.113-.37c0-.27-.12-.457-.358-.56-.24-.103-.562-.154-.97-.154h-.554v1.407z" fill="#FFF"/></svg>