<svg width="135" height="40" fill="none" xmlns="http://www.w3.org/2000/svg"><path d="M125.477 0H7.517c-.671.01-1.341.068-2.004.176a6.62 6.62 0 00-1.89.619 6.45 6.45 0 00-1.62 1.162 6.294 6.294 0 00-1.177 1.6 6.48 6.48 0 00-.632 1.894 12.446 12.446 0 00-.178 1.976C0 7.733 0 8.032 0 8.336v23.33c0 .307 0 .606.016.913.007.662.067 1.323.178 1.976A6.412 6.412 0 003.615 39.2c.595.3 1.232.51 1.89.624.663.107 1.332.165 2.004.173h119.963a13.48 13.48 0 001.998-.173 6.867 6.867 0 001.909-.624 6.228 6.228 0 001.62-1.163 6.263 6.263 0 001.183-1.6 6.49 6.49 0 00.618-1.866c.112-.654.174-1.314.186-1.976V7.437a13.095 13.095 0 00-.186-1.976A6.441 6.441 0 00131.387.8a6.762 6.762 0 00-1.909-.61 13.488 13.488 0 00-1.998-.177h-.92L125.477 0z" fill="#B6B6B6"/><path d="M8.44 39.136h-.904a12.92 12.92 0 01-1.869-.16 5.991 5.991 0 01-1.655-.533 5.55 5.55 0 01-2.416-2.382 5.657 5.657 0 01-.54-1.637 11.855 11.855 0 01-.165-1.85c0-.209-.016-.902-.016-.902V8.336s0-.683.016-.883c.005-.62.059-1.24.162-1.853a5.612 5.612 0 01.54-1.643 5.321 5.321 0 011.018-1.373 5.61 5.61 0 011.401-1.01 5.935 5.935 0 011.653-.534C6.285.94 6.91.886 7.538.877h119.929c.622.007 1.243.06 1.858.16a5.89 5.89 0 011.668.534 5.533 5.533 0 012.954 4.03c.104.616.161 1.24.173 1.866v25.106c-.01.614-.067 1.225-.17 1.83a5.584 5.584 0 01-.54 1.648 5.593 5.593 0 01-2.414 2.376c-.525.26-1.087.44-1.666.533-.618.1-1.242.153-1.868.16H8.44v.016z" fill="#000"/><path d="M49.953 26.494h-4.986l-1.12 3.106H42.23l4.544-11.901h1.374l4.553 11.9h-1.61l-1.137-3.105zm-4.512-1.292h4.046l-2.027-5.566-2.019 5.566zm16.094.074c0 1.346-.307 2.43-.923 3.253-.616.823-1.45 1.234-2.501 1.234-1.074 0-1.918-.34-2.534-1.021V33h-1.512V20.756h1.38l.075.98c.615-.762 1.47-1.144 2.566-1.144 1.063 0 1.902.4 2.518 1.202.62.8.931 1.915.931 3.343v.139zm-1.512-.172c0-.997-.212-1.784-.637-2.362-.425-.578-1.008-.866-1.75-.866-.915 0-1.602.406-2.06 1.217v4.226c.453.807 1.145 1.21 2.077 1.21.725 0 1.3-.286 1.725-.858.43-.578.645-1.433.645-2.567zm10.912.172c0 1.346-.308 2.43-.923 3.253-.616.823-1.45 1.234-2.502 1.234-1.073 0-1.918-.34-2.533-1.021V33h-1.513V20.756h1.382l.073.98c.616-.762 1.472-1.144 2.567-1.144 1.063 0 1.902.4 2.517 1.202.622.8.932 1.915.932 3.343v.139zm-1.512-.172c0-.997-.212-1.784-.637-2.362-.425-.578-1.008-.866-1.75-.866-.915 0-1.602.406-2.06 1.217v4.226c.453.807 1.145 1.21 2.077 1.21.725 0 1.3-.286 1.725-.858.43-.578.645-1.433.645-2.567zm12.465 2.935c-.403.577-.967 1.01-1.692 1.3-.719.283-1.558.424-2.517.424-.97 0-1.831-.226-2.583-.678-.752-.458-1.335-1.106-1.75-1.945-.408-.84-.618-1.812-.629-2.919v-1.038c0-1.792.417-3.182 1.25-4.168.84-.987 2.017-1.48 3.532-1.48 1.242 0 2.242.32 3 .957.757.632 1.22 1.53 1.39 2.697h-1.57c-.294-1.575-1.232-2.362-2.812-2.362-1.052 0-1.85.37-2.395 1.111-.54.736-.812 1.804-.817 3.204v.973c0 1.335.305 2.398.915 3.188.61.785 1.436 1.177 2.477 1.177.588 0 1.103-.065 1.545-.196.441-.13.806-.352 1.095-.662v-2.673h-2.754v-1.275h4.315v4.365zm7.847 1.56c-.087-.174-.158-.484-.212-.931-.703.73-1.542 1.095-2.518 1.095-.872 0-1.588-.245-2.15-.735-.555-.496-.833-1.123-.833-1.88 0-.921.348-1.635 1.046-2.142.703-.512 1.69-.768 2.959-.768h1.471v-.695c0-.528-.158-.948-.474-1.259-.316-.316-.782-.474-1.398-.474-.54 0-.991.136-1.357.409-.365.272-.547.602-.547.989h-1.52c0-.441.155-.866.465-1.275.316-.414.742-.741 1.275-.981a4.32 4.32 0 011.774-.36c1.02 0 1.818.256 2.395.769.578.506.877 1.207.9 2.1v4.07c0 .813.103 1.459.31 1.938v.13h-1.586zm-2.51-1.152c.475 0 .924-.122 1.35-.367.424-.246.732-.564.923-.957V25.31h-1.185c-1.853 0-2.78.542-2.78 1.626 0 .474.159.845.475 1.112.316.267.722.4 1.218.4zm7.799 1.153H93.51V17.045h1.513V29.6zm4.07 0h-1.512V17.045h1.512V29.6zm6.098.163c-1.199 0-2.174-.392-2.926-1.177-.752-.79-1.128-1.844-1.128-3.163v-.278c0-.877.166-1.66.498-2.346.338-.692.807-1.231 1.406-1.618a3.538 3.538 0 011.962-.589c1.15 0 2.043.379 2.681 1.137.637.757.956 1.841.956 3.253v.629h-5.991c.022.872.275 1.578.76 2.117.49.534 1.112.801 1.864.801.534 0 .986-.109 1.356-.327.371-.218.695-.507.973-.866l.924.719c-.741 1.139-1.853 1.708-3.335 1.708zm-.188-7.928c-.61 0-1.123.223-1.537.67-.414.441-.67 1.063-.768 1.864h4.43v-.115c-.044-.768-.251-1.362-.621-1.782-.371-.425-.872-.637-1.504-.637zm9.67.278a4.54 4.54 0 00-.744-.058c-.992 0-1.665.423-2.019 1.267V29.6h-1.512v-8.844h1.471l.024 1.021c.496-.79 1.199-1.185 2.109-1.185.295 0 .518.038.671.115v1.406zm4.438 5.272l2.06-6.63h1.618l-3.556 10.21c-.55 1.471-1.424 2.207-2.623 2.207l-.286-.025-.564-.106v-1.226l.408.033c.513 0 .91-.104 1.194-.31.289-.208.526-.587.711-1.137l.335-.9-3.155-8.745h1.651l2.207 6.629zm-78.29-17.163l1.414-3.565h.94l-2.172 5.118c-.146.326-.283.558-.41.696a1.31 1.31 0 01-.447.312c-.168.07-.38.105-.637.105-.222 0-.364-.012-.426-.038l.025-.64.384.016c.296 0 .515-.142.659-.426l.105-.22.16-.375-2.092-4.548h.907l1.59 3.565zm6.476-1.915a.942.942 0 00-.358-.776c-.237-.194-.57-.292-1-.292-.36 0-.663.1-.907.3a.91.91 0 00-.363.734h-.81c0-.326.088-.619.266-.877.18-.26.43-.46.75-.604.321-.146.676-.22 1.064-.22.686 0 1.219.156 1.599.465.38.307.57.734.57 1.282 0 .285-.088.543-.262.777a1.756 1.756 0 01-.73.552c.723.242 1.084.722 1.084 1.439 0 .551-.205.989-.616 1.312-.41.324-.96.485-1.645.485-.408 0-.78-.072-1.114-.215a1.804 1.804 0 01-.776-.62 1.63 1.63 0 01-.279-.954h.81c0 .324.128.594.384.81.256.214.58.321.975.321.441 0 .793-.103 1.054-.308a.98.98 0 00.397-.814c0-.72-.446-1.087-1.337-1.101h-.76v-.667h.755c.411-.008.722-.101.933-.278.21-.177.316-.428.316-.751zm6.7 4.493h-.815V9.96h-3.096v2.84h-.81V6.657h.81v2.641h3.096v-2.64h.815V12.8zm4.906-1.603H56.33l-.578 1.603h-.835l2.346-6.143h.709l2.35 6.143h-.832l-.586-1.603zm-2.329-.667h2.088l-1.046-2.873-1.042 2.873zm8.446-3.873h.81V12.8h-.81V8.066L61.996 12.8h-.814V6.657h.814v4.734l3.025-4.734zm-.228-1.527c0 .34-.116.615-.35.823-.23.205-.534.308-.911.308s-.682-.104-.916-.312a1.047 1.047 0 01-.35-.819h.637c0 .197.054.352.16.464.107.11.264.165.469.165.197 0 .35-.055.46-.165.112-.11.169-.264.169-.464h.632zm6.759 2.194h-1.975V12.8h-.805V7.324h-1.97v-.667h4.75v.667zm4.383 2.637h-2.662v2.176h3.092v.663h-3.902V6.657h3.86v.667h-3.05v1.974h2.662v.663zm7.328-2.637h-2.962v1.84h1.528c.64.008 1.142.172 1.502.493.36.32.54.756.54 1.308 0 .554-.182.995-.545 1.324-.363.33-.858.5-1.485.51h-2.354V6.658h3.776v.667zM80.301 9.83v2.307h1.481c.402 0 .715-.106.937-.32.225-.214.337-.5.337-.86 0-.347-.108-.62-.325-.82-.213-.199-.518-.302-.915-.307H80.3zm9.391.097c0 .602-.1 1.128-.303 1.578-.203.447-.49.789-.861 1.025-.371.236-.804.354-1.3.354a2.36 2.36 0 01-1.286-.354 2.386 2.386 0 01-.873-1.017c-.206-.441-.311-.952-.317-1.531v-.443c0-.59.103-1.113.308-1.565.206-.453.495-.8.87-1.038a2.338 2.338 0 011.29-.363c.492 0 .925.12 1.3.359.376.236.666.58.869 1.033.202.45.303.975.303 1.574v.388zm-.805-.397c0-.728-.147-1.286-.44-1.675-.292-.39-.7-.586-1.227-.586-.512 0-.915.195-1.21.586-.293.389-.444.929-.452 1.62v.452c0 .706.148 1.261.443 1.666.298.402.707.604 1.228.604.523 0 .928-.19 1.215-.57.287-.383.434-.93.443-1.641V9.53zm6.53-2.873V12.8h-.81V7.324h-2.202l-.11 2.434c-.042.816-.126 1.429-.253 1.84-.124.41-.306.712-.548.906-.242.192-.566.29-.97.296h-.266v-.663l.168-.008c.262-.02.463-.104.604-.253.14-.152.247-.392.32-.721.073-.33.126-.836.156-1.52l.127-2.978h3.784zm2.257 2.506h1.527c.642.009 1.142.173 1.502.494.36.32.54.756.54 1.308 0 .554-.181.995-.544 1.324-.363.33-.858.5-1.485.51h-2.35V6.658h.81v2.506zm0 .667v2.307h1.481c.402 0 .714-.106.937-.32.225-.214.337-.5.337-.86 0-.347-.108-.62-.325-.82-.213-.199-.519-.302-.915-.307h-1.515zm5.485-3.173v5.48h2.113v-5.48h.806v5.48h2.101v-5.48h.81V12.8h-6.645V6.657h.815zm10.762 3.304h-2.662v2.176h3.092v.663h-3.902V6.657h3.86v.667h-3.05v1.974h2.662v.663zm8.302 2.839h-.814V9.96h-3.097v2.84h-.81V6.657h.81v2.641h3.097v-2.64h.814V12.8zm4.907-1.603h-2.574l-.578 1.603h-.835l2.345-6.143h.709l2.35 6.143h-.831l-.586-1.603zm-2.329-.667h2.088l-1.046-2.873-1.042 2.873z" fill="#fff"/><path d="M27.278 7.334H16.062c-3.986 0-7.217 3.191-7.217 7.128v11.077c0 3.937 3.231 7.128 7.217 7.128h11.216c3.986 0 7.217-3.191 7.217-7.128V14.462c0-3.937-3.231-7.128-7.217-7.128z" fill="#C8102E"/><path d="M13.924 20h.68v3.315h-.68v-1.347h-1.536v1.347h-.68V20h.68v1.333h1.536V20zm3.834 1.896c0 .533-.27.827-.761.827-.492 0-.767-.294-.767-.856V20h-.68v1.893c0 .931.523 1.464 1.436 1.464.912 0 1.452-.533 1.452-1.493V20h-.68v1.896zm7.862.381L24.86 20h-.56l-.756 2.28-.742-2.28h-.724l1.169 3.315h.564l.759-2.176.761 2.176h.57L27.071 20h-.708l-.743 2.277zm2.668-.392h1.24v-.6h-1.24v-.677h1.798V20h-2.468v3.307h2.533v-.598h-1.863v-.824zm2.673 1.422h.672V20h-.672v3.307zm-11.178-.686l-.305.688h-.694L20.25 20h.6l1.47 3.31h-.701l-.289-.686-1.547-.003zm.254-.597h1.023l-.513-1.184-.51 1.184zm1.633-6.24a4.298 4.298 0 01-3.017-1.236 4.192 4.192 0 01-1.252-2.98h.603c0 .96.386 1.882 1.073 2.56a3.69 3.69 0 002.593 1.061 3.69 3.69 0 002.593-1.06 3.599 3.599 0 001.074-2.56h.602c0 1.117-.45 2.189-1.251 2.98a4.299 4.299 0 01-3.018 1.235z" fill="#fff"/></svg>