<svg width="135" height="40" viewBox="0 0 135 40" fill="none" xmlns="http://www.w3.org/2000/svg">
<path d="M125.477 0H8.4348C8.1297 0 7.8246 0 7.5168 0C6.84551 0.00964053 6.17587 0.0684687 5.5134 0.176C4.85521 0.286098 4.21788 0.49472 3.6234 0.794667C3.02543 1.0966 2.47885 1.48888 2.0034 1.95733C1.52803 2.42602 1.13072 2.96603 0.8262 3.55733C0.518817 4.15282 0.305739 4.79136 0.1944 5.45067C0.0824991 6.10368 0.0229144 6.7644 0.0162 7.42667C0 7.73333 0 8.032 0 8.336V31.6667C0 31.9733 0 32.272 0.0162 32.5787C0.0231487 33.2409 0.0827318 33.9016 0.1944 34.5547C0.304775 35.2046 0.515104 35.8341 0.8181 36.4213C1.43058 37.6157 2.40961 38.5882 3.6153 39.2C4.21004 39.5005 4.84717 39.7108 5.5053 39.824C6.16784 39.9307 6.83748 39.9886 7.5087 39.9973C7.8165 39.9973 8.1216 39.9973 8.4267 39.9973H126.552C126.857 39.9973 127.167 39.9973 127.472 39.9973C128.142 39.9892 128.81 39.9312 129.47 39.824C130.134 39.7104 130.778 39.5001 131.379 39.2C131.979 38.9012 132.526 38.5086 132.999 38.0373C133.477 37.5694 133.876 37.0293 134.182 36.4373C134.482 35.8494 134.69 35.2201 134.8 34.5707C134.912 33.9175 134.974 33.257 134.986 32.5947C134.986 32.288 134.986 31.9893 134.986 31.6827C134.986 31.3253 134.986 30.968 134.986 30.616V9.41333C134.986 9.05067 134.986 8.69333 134.986 8.34667C134.986 8.04267 134.986 7.73867 134.986 7.43733C134.974 6.775 134.912 6.11449 134.8 5.46133C134.689 4.81217 134.481 4.183 134.182 3.59467C133.57 2.39685 132.592 1.41924 131.387 0.8C130.786 0.50313 130.142 0.297275 129.478 0.189333C128.818 0.0812174 128.15 0.0223844 127.48 0.0133333C127.175 0.0133333 126.865 0.0133333 126.56 0.0133333L125.477 0Z" fill="#B6B6B6"/>
<path d="M8.44016 39.1361C8.13506 39.1361 7.83806 39.1361 7.53566 39.1361C6.90973 39.1281 6.28524 39.0746 5.66726 38.9761C5.09203 38.8796 4.53434 38.6999 4.01216 38.4428C2.9747 37.9176 2.1297 37.0849 1.59566 36.0614C1.33284 35.5458 1.15077 34.9937 1.05566 34.4241C0.952416 33.8124 0.897351 33.1936 0.890956 32.5734C0.890956 32.3654 0.874756 31.6721 0.874756 31.6721V8.33611C0.874756 8.33611 0.874756 7.65344 0.890956 7.45344C0.895625 6.83242 0.949793 6.21273 1.05296 5.60011C1.14683 5.0285 1.32895 4.4745 1.59296 3.95744C1.85539 3.44865 2.1991 2.98494 2.61086 2.58411C3.02209 2.17752 3.49484 1.83656 4.01216 1.57344C4.53318 1.31583 5.09005 1.13609 5.66456 1.04011C6.2843 0.940801 6.91057 0.886434 7.53836 0.877441H8.44016H126.554H127.467C128.089 0.884033 128.71 0.937522 129.325 1.03744C129.905 1.13145 130.467 1.31125 130.993 1.57077C132.033 2.10053 132.878 2.94024 133.407 3.97077C133.669 4.4839 133.851 5.03322 133.947 5.60011C134.051 6.21732 134.108 6.84122 134.12 7.46677C134.12 7.74677 134.12 8.04811 134.12 8.34677C134.12 8.71744 134.12 9.06944 134.12 9.41344V30.5868C134.12 30.9468 134.12 31.2961 134.12 31.6534C134.12 32.0108 134.12 32.2694 134.12 32.5734C134.11 33.1866 134.053 33.7981 133.95 34.4028C133.857 34.9764 133.675 35.5324 133.41 36.0508C132.873 37.0704 132.03 37.9005 130.996 38.4268C130.471 38.6866 129.909 38.8664 129.33 38.9601C128.712 39.0592 128.088 39.1127 127.462 39.1201C127.17 39.1201 126.862 39.1201 126.565 39.1201H8.44016V39.1361Z" fill="black"/>
<path d="M49.9531 26.4938H44.9671L43.8473 29.5999H42.2289L46.7735 17.6988H48.1467L52.6995 29.5999H51.0893L49.9531 26.4938ZM45.4412 25.2023H49.4872L47.4601 19.636L45.4412 25.2023ZM61.5354 25.2759C61.5354 26.6219 61.2276 27.7063 60.6118 28.5291C59.996 29.3519 59.1623 29.7633 58.1106 29.7633C57.0371 29.7633 56.1925 29.4228 55.5767 28.7416V33.0002H54.0646V20.7558H55.4459L55.5195 21.7366C56.1353 20.9737 56.9908 20.5923 58.0861 20.5923C59.1487 20.5923 59.9879 20.9928 60.6036 21.7938C61.2248 22.5949 61.5354 23.7092 61.5354 25.1369V25.2759ZM60.0233 25.1042C60.0233 24.107 59.8108 23.3196 59.3857 22.742C58.9607 22.1644 58.3776 21.8756 57.6365 21.8756C56.7211 21.8756 56.0345 22.2816 55.5767 23.0935V27.3194C56.029 28.1258 56.7211 28.5291 57.6529 28.5291C58.3776 28.5291 58.9525 28.243 59.3776 27.6708C59.808 27.0932 60.0233 26.2377 60.0233 25.1042ZM70.9354 25.2759C70.9354 26.6219 70.6275 27.7063 70.0117 28.5291C69.3959 29.3519 68.5622 29.7633 67.5105 29.7633C66.437 29.7633 65.5924 29.4228 64.9766 28.7416V33.0002H63.4645V20.7558H64.8458L64.9194 21.7366C65.5352 20.9737 66.3907 20.5923 67.486 20.5923C68.5486 20.5923 69.3878 20.9928 70.0035 21.7938C70.6247 22.5949 70.9354 23.7092 70.9354 25.1369V25.2759ZM69.4232 25.1042C69.4232 24.107 69.2107 23.3196 68.7856 22.742C68.3606 22.1644 67.7775 21.8756 67.0364 21.8756C66.121 21.8756 65.4344 22.2816 64.9766 23.0935V27.3194C65.4289 28.1258 66.121 28.5291 67.0528 28.5291C67.7775 28.5291 68.3524 28.243 68.7775 27.6708C69.2079 27.0932 69.4232 26.2377 69.4232 25.1042ZM81.8883 28.0387C81.485 28.6163 80.921 29.0495 80.1963 29.3383C79.477 29.6217 78.6378 29.7633 77.6788 29.7633C76.7088 29.7633 75.8478 29.5372 75.0958 29.0849C74.3438 28.6272 73.7608 27.9787 73.3466 27.1395C72.9379 26.3004 72.7281 25.3277 72.7172 24.2215V23.1834C72.7172 21.3906 73.1341 20.0011 73.9678 19.0147C74.807 18.0284 75.9841 17.5353 77.4989 17.5353C78.7414 17.5353 79.7413 17.8541 80.4987 18.4916C81.2562 19.1237 81.7194 20.0229 81.8883 21.189H80.3189C80.0246 19.6142 79.0874 18.8267 77.5071 18.8267C76.4554 18.8267 75.6571 19.1973 75.1122 19.9384C74.5727 20.674 74.3002 21.7421 74.2948 23.1425V24.1152C74.2948 25.4503 74.6 26.5129 75.2103 27.303C75.8206 28.0877 76.6461 28.48 77.6869 28.48C78.2754 28.48 78.7904 28.4146 79.2318 28.2839C79.6732 28.1531 80.0383 27.9324 80.3271 27.6218V24.9489H77.5725V23.6738H81.8883V28.0387ZM89.7352 29.5999C89.648 29.4255 89.5771 29.1149 89.5226 28.668C88.8197 29.3982 87.9805 29.7633 87.0051 29.7633C86.1332 29.7633 85.4167 29.5181 84.8554 29.0277C84.2996 28.5318 84.0217 27.9051 84.0217 27.1477C84.0217 26.2268 84.3704 25.5129 85.0679 25.0062C85.7708 24.4939 86.7572 24.2378 88.0268 24.2378H89.4981V23.543C89.4981 23.0145 89.3401 22.5949 89.024 22.2843C88.708 21.9682 88.2421 21.8102 87.6263 21.8102C87.0868 21.8102 86.6346 21.9464 86.2695 22.2189C85.9044 22.4913 85.7218 22.821 85.7218 23.2079H84.2015C84.2015 22.7665 84.3568 22.3415 84.6674 21.9328C84.9834 21.5187 85.4085 21.1917 85.9425 20.9519C86.482 20.7122 87.0732 20.5923 87.7162 20.5923C88.7352 20.5923 89.5335 20.8484 90.1112 21.3606C90.6888 21.8674 90.9885 22.5676 91.0103 23.4613V27.5319C91.0103 28.3438 91.1138 28.9895 91.3209 29.4691V29.5999H89.7352ZM87.2258 28.4473C87.6999 28.4473 88.1494 28.3247 88.5745 28.0795C88.9995 27.8343 89.3074 27.5155 89.4981 27.1232V25.3086H88.3129C86.4602 25.3086 85.5338 25.8508 85.5338 26.9352C85.5338 27.4093 85.6918 27.7798 86.0079 28.0468C86.3239 28.3138 86.7299 28.4473 87.2258 28.4473ZM95.0236 29.5999H93.5115V17.0449H95.0236V29.5999ZM99.0942 29.5999H97.582V17.0449H99.0942V29.5999ZM105.192 29.7633C103.993 29.7633 103.018 29.371 102.266 28.5863C101.514 27.7962 101.138 26.7417 101.138 25.423V25.1451C101.138 24.2678 101.304 23.4858 101.636 22.7992C101.974 22.1072 102.443 21.5677 103.042 21.1808C103.647 20.7885 104.301 20.5923 105.004 20.5923C106.154 20.5923 107.047 20.971 107.685 21.7285C108.322 22.4859 108.641 23.5703 108.641 24.9816V25.611H102.65C102.672 26.4829 102.925 27.1886 103.41 27.728C103.9 28.2621 104.522 28.5291 105.274 28.5291C105.808 28.5291 106.26 28.4201 106.63 28.2021C107.001 27.9842 107.325 27.6954 107.603 27.3357L108.527 28.055C107.786 29.1939 106.674 29.7633 105.192 29.7633ZM105.004 21.8347C104.394 21.8347 103.881 22.0581 103.467 22.505C103.053 22.9464 102.797 23.5676 102.699 24.3686H107.129V24.2542C107.085 23.4858 106.878 22.8919 106.508 22.4723C106.137 22.0472 105.636 21.8347 105.004 21.8347ZM114.674 22.1126C114.445 22.0745 114.197 22.0554 113.93 22.0554C112.938 22.0554 112.265 22.4777 111.911 23.3224V29.5999H110.399V20.7558H111.87L111.894 21.7775C112.39 20.9874 113.093 20.5923 114.003 20.5923C114.298 20.5923 114.521 20.6304 114.674 20.7067V22.1126ZM119.112 27.3847L121.172 20.7558H122.79L119.234 30.9649C118.684 32.4362 117.81 33.1718 116.611 33.1718L116.325 33.1473L115.761 33.041V31.815L116.169 31.8477C116.682 31.8477 117.079 31.7441 117.363 31.5371C117.652 31.33 117.889 30.9513 118.074 30.4009L118.409 29.5018L115.254 20.7558H116.905L119.112 27.3847Z" fill="white"/>
<path d="M40.8223 10.2221L42.2356 6.65731H43.1764L41.0037 11.7746C40.8575 12.1009 40.7211 12.3329 40.5945 12.4707C40.468 12.6057 40.3189 12.7098 40.1473 12.7829C39.9786 12.8532 39.7662 12.8884 39.5103 12.8884C39.2881 12.8884 39.1461 12.8757 39.0842 12.8504L39.1095 12.2092L39.4934 12.2261C39.7887 12.2261 40.0081 12.084 40.1516 11.8L40.257 11.5806L40.4173 11.2051L38.3248 6.65731H39.2319L40.8223 10.2221ZM47.2981 8.30684C47.2981 7.98059 47.1786 7.72184 46.9395 7.53059C46.7033 7.33652 46.37 7.23949 45.9397 7.23949C45.5797 7.23949 45.2773 7.33934 45.0327 7.53902C44.7908 7.7359 44.6698 7.98059 44.6698 8.27309H43.8598C43.8598 7.94684 43.9484 7.65434 44.1256 7.39559C44.3056 7.13684 44.5559 6.93574 44.8766 6.79231C45.1972 6.64606 45.5516 6.57293 45.9397 6.57293C46.6259 6.57293 47.1589 6.72762 47.5386 7.03699C47.9183 7.34356 48.1081 7.77106 48.1081 8.31949C48.1081 8.60355 48.0209 8.8623 47.8466 9.09574C47.6722 9.32918 47.4289 9.5134 47.1167 9.6484C47.8395 9.89027 48.2009 10.3698 48.2009 11.087C48.2009 11.6382 47.9956 12.0756 47.585 12.399C47.1744 12.7225 46.6259 12.8842 45.9397 12.8842C45.5319 12.8842 45.1606 12.8125 44.8259 12.669C44.4941 12.5228 44.2353 12.3161 44.0497 12.0489C43.8641 11.7817 43.7712 11.4639 43.7712 11.0954H44.5812C44.5812 11.4189 44.7092 11.6889 44.9652 11.9054C45.2211 12.1192 45.5459 12.2261 45.9397 12.2261C46.3812 12.2261 46.7328 12.1234 46.9944 11.9181C47.2587 11.7128 47.3909 11.4414 47.3909 11.1039C47.3909 10.3839 46.9452 10.0168 46.0536 10.0028H45.2942V9.33621H46.0494C46.46 9.32777 46.7708 9.23496 46.9817 9.05777C47.1927 8.88059 47.2981 8.63027 47.2981 8.30684ZM53.9975 12.7998H53.1833V9.96059H50.0867V12.7998H49.2767V6.65731H50.0867V9.29824H53.1833V6.65731H53.9975V12.7998ZM58.9039 11.1967H56.3305L55.7525 12.7998H54.9172L57.2628 6.65731H57.9716L60.3214 12.7998H59.4903L58.9039 11.1967ZM56.5752 10.5301H58.6634L57.6172 7.65715L56.5752 10.5301ZM65.0211 6.65731H65.8311V12.7998H65.0211V8.06637L61.9962 12.7998H61.182V6.65731H61.9962V11.3907L65.0211 6.65731ZM64.7933 5.13012C64.7933 5.47043 64.6766 5.74465 64.4431 5.95277C64.2125 6.15809 63.9087 6.26074 63.5319 6.26074C63.155 6.26074 62.8498 6.15668 62.6164 5.94856C62.383 5.74043 62.2662 5.46762 62.2662 5.13012H62.9033C62.9033 5.32699 62.9567 5.48168 63.0636 5.59418C63.1705 5.70387 63.3266 5.75871 63.5319 5.75871C63.7287 5.75871 63.882 5.70387 63.9917 5.59418C64.1042 5.48449 64.1605 5.32981 64.1605 5.13012H64.7933ZM71.5517 7.32387H69.5773V12.7998H68.7716V7.32387H66.8014V6.65731H71.5517V7.32387ZM75.935 9.96059H73.273V12.1375H76.3653V12.7998H72.463V6.65731H76.3231V7.32387H73.273V9.29824H75.935V9.96059ZM83.263 7.32387H80.3014V9.16324H81.8286C82.4698 9.17168 82.9705 9.33621 83.3305 9.65684C83.6905 9.97746 83.8705 10.4134 83.8705 10.9646C83.8705 11.5187 83.6891 11.9603 83.3262 12.2893C82.9634 12.6184 82.4684 12.7886 81.8412 12.7998H79.4872V6.65731H83.263V7.32387ZM80.3014 9.8298V12.1375H81.7822C82.1844 12.1375 82.4966 12.0306 82.7187 11.8168C82.9437 11.6031 83.0562 11.3162 83.0562 10.9562C83.0562 10.6103 82.948 10.3375 82.7314 10.1378C82.5177 9.93809 82.2125 9.83543 81.8159 9.8298H80.3014ZM89.6923 9.92684C89.6923 10.5287 89.5911 11.0546 89.3886 11.5046C89.1861 11.9518 88.8992 12.2936 88.528 12.5298C88.1567 12.7661 87.7236 12.8842 87.2286 12.8842C86.7448 12.8842 86.3159 12.7661 85.9419 12.5298C85.5678 12.2907 85.2767 11.9518 85.0686 11.5131C84.8633 11.0715 84.7578 10.5611 84.7522 9.98168V9.53871C84.7522 8.94809 84.8548 8.42637 85.0602 7.97356C85.2655 7.52074 85.5552 7.17481 85.9292 6.93574C86.3061 6.69387 86.7364 6.57293 87.2202 6.57293C87.7123 6.57293 88.1455 6.69246 88.5195 6.93152C88.8964 7.16777 89.1861 7.51231 89.3886 7.96512C89.5911 8.41512 89.6923 8.93965 89.6923 9.53871V9.92684ZM88.8866 9.53027C88.8866 8.80184 88.7403 8.24356 88.4478 7.85543C88.1553 7.46449 87.7461 7.26902 87.2202 7.26902C86.7083 7.26902 86.3047 7.46449 86.0094 7.85543C85.7169 8.24356 85.5664 8.78355 85.558 9.47543V9.92684C85.558 10.6328 85.7056 11.1882 86.0009 11.5932C86.2991 11.9954 86.7083 12.1965 87.2286 12.1965C87.7517 12.1965 88.1567 12.0067 88.4436 11.627C88.7305 11.2445 88.8781 10.6975 88.8866 9.9859V9.53027ZM95.4172 6.65731V12.7998H94.6072V7.32387H92.405L92.2953 9.75809C92.2531 10.5737 92.1687 11.1868 92.0422 11.5975C91.9184 12.0081 91.7356 12.3104 91.4937 12.5045C91.2519 12.6957 90.9284 12.7942 90.5234 12.7998H90.2577V12.1375L90.4264 12.129C90.688 12.1093 90.8891 12.025 91.0297 11.8759C91.1703 11.724 91.2772 11.4836 91.3503 11.1545C91.4234 10.8254 91.4755 10.3192 91.5064 9.63574L91.633 6.65731H95.4172ZM97.6742 9.16324H99.2014C99.8427 9.17168 100.343 9.33621 100.703 9.65684C101.063 9.97746 101.243 10.4134 101.243 10.9646C101.243 11.5187 101.062 11.9603 100.699 12.2893C100.336 12.6184 99.8412 12.7886 99.2141 12.7998H96.8642V6.65731H97.6742V9.16324ZM97.6742 9.8298V12.1375H99.155C99.5572 12.1375 99.8694 12.0306 100.092 11.8168C100.317 11.6031 100.429 11.3162 100.429 10.9562C100.429 10.6103 100.321 10.3375 100.104 10.1378C99.8905 9.93809 99.5853 9.83543 99.1887 9.8298H97.6742ZM103.159 6.65731V12.1375H105.272V6.65731H106.078V12.1375H108.179V6.65731H108.989V12.7998H102.344V6.65731H103.159ZM113.921 9.96059H111.259V12.1375H114.351V12.7998H110.449V6.65731H114.309V7.32387H111.259V9.29824H113.921V9.96059ZM122.223 12.7998H121.409V9.96059H118.312V12.7998H117.502V6.65731H118.312V9.29824H121.409V6.65731H122.223V12.7998ZM127.13 11.1967H124.556L123.978 12.7998H123.143L125.488 6.65731H126.197L128.547 12.7998H127.716L127.13 11.1967ZM124.801 10.5301H126.889L125.843 7.65715L124.801 10.5301Z" fill="white"/>
<path d="M27.278 7.33374H16.0622C12.0763 7.33374 8.84509 10.5251 8.84509 14.4617V25.5391C8.84509 29.4758 12.0763 32.6671 16.0622 32.6671H27.278C31.2639 32.6671 34.4951 29.4758 34.4951 25.5391V14.4617C34.4951 10.5251 31.2639 7.33374 27.278 7.33374Z" fill="#C8102E"/>
<path d="M13.9239 20H14.6043V23.3147H13.9239V21.968H12.3876V23.3147H11.7072V20H12.3876V21.3333H13.9239V20ZM17.7579 21.896C17.7579 22.4293 17.4879 22.7227 16.9965 22.7227C16.5051 22.7227 16.2297 22.4293 16.2297 21.8667V20H15.5493V21.8933C15.5493 22.824 16.0731 23.3573 16.9857 23.3573C17.8983 23.3573 18.4383 22.824 18.4383 21.864V20H17.7579V21.896ZM25.6203 22.2773L24.8589 20H24.3L23.544 22.28L22.8015 20H22.0779L23.247 23.3147H23.8113L24.57 21.1387L25.3314 23.3147H25.9011L27.0702 20H26.3628L25.6203 22.2773ZM28.2879 21.8853H29.5272V21.2853H28.2879V20.608H30.0861V20H27.6183V23.3067H30.1509V22.7093H28.2879V21.8853ZM30.9609 23.3067H31.6332V20H30.9609V23.3067ZM19.7829 22.6213L19.4778 23.3093H18.7839L20.25 20H20.8494L22.3209 23.3093H21.6189L21.33 22.624L19.7829 22.6213ZM20.0367 22.024H21.06L20.547 20.84L20.0367 22.024Z" fill="white"/>
<path d="M21.6702 15.7841C20.5383 15.7834 19.4529 15.339 18.6526 14.5485C17.8522 13.758 17.4022 12.6861 17.4015 11.5681H18.0036C18.0036 12.5286 18.3899 13.4497 19.0775 14.1288C19.7651 14.8079 20.6977 15.1894 21.6702 15.1894C22.6426 15.1894 23.5752 14.8079 24.2629 14.1288C24.9505 13.4497 25.3368 12.5286 25.3368 11.5681H25.9389C25.9382 12.6861 25.4882 13.758 24.6878 14.5485C23.8874 15.339 22.8021 15.7834 21.6702 15.7841Z" fill="white"/>
</svg>
