<?xml version="1.0" encoding="utf-8"?><svg xmlns="http://www.w3.org/2000/svg" xmlns:xlink="http://www.w3.org/1999/xlink"><symbol viewBox="0 0 10 11" id="arrow-up" xmlns="http://www.w3.org/2000/svg"><path fill-rule="evenodd" clip-rule="evenodd" d="M.406 6.238a.812.812 0 10-1.148 NaN NaNlNaN NaNa.812.812 0 11.148 0 NaN NaNlNaN NaN NaN NaNa.812.812 0 1-1.149 NaN NaNlNaN NaNvNaNa.812.812 0 11-1.624 NaN NaNvNaNlNaN NaNa.812.812 0 1-1.148 NaN NaNz"/></symbol><symbol viewBox="0 0 20 20" id="fb" xmlns="http://www.w3.org/2000/svg"><path d="M17.857 0H2.143A2.143 2.143 0 0 0 0 2.143v15.714A2.143 2.143 0 0 0 2.143 20H8.27v-6.8H5.458V10H8.27V7.56c0-2.774 1.652-4.306 4.182-4.306 1.211 0 2.478.216 2.478.216v2.723h-1.396c-1.375 0-1.804.853-1.804 1.729V10h3.07l-.49 3.2h-2.58V20h6.127A2.143 2.143 0 0 0 20 17.857V2.143A2.143 2.143 0 0 0 17.857 0z"/></symbol><symbol viewBox="0 0 20 20" id="in" xmlns="http://www.w3.org/2000/svg"><g clip-path="url(#cclip0_2_11)"><path d="M18.125 0H1.875A1.88 1.88 0 0 0 0 1.875v16.25A1.88 1.88 0 0 0 1.875 20h16.25A1.88 1.88 0 0 0 20 18.125V1.875A1.88 1.88 0 0 0 18.125 0zM7.5 16.25H5V7.5h2.5v8.75zm-1.25-10a1.25 1.25 0 1 1 0-2.5 1.25 1.25 0 0 1 0 2.5zm10 10h-2.5v-5a1.25 1.25 0 0 0-2.5 0v5h-2.5V7.5h2.5v1.551c.515-.707 1.305-1.551 2.188-1.551 1.554 0 2.812 1.399 2.812 3.125v5.625z"/></g><defs><clipPath id="cclip0_2_11"><path d="M0 0h20v20H0z"/></clipPath></defs></symbol><symbol viewBox="0 0 16 16" id="minus" xmlns="http://www.w3.org/2000/svg"><rect x="2" y="7" width="12" height="2" rx="1"/></symbol><symbol viewBox="0 0 16 16" id="plus" xmlns="http://www.w3.org/2000/svg"><path d="M2 8a1 1 0 0 1 1-1h10a1 1 0 1 1 0 2H3a1 1 0 0 1-1-1z"/><path d="M8 2a1 1 0 0 1 1 1v10a1 1 0 1 1-2 0V3a1 1 0 0 1 1-1z"/></symbol><symbol viewBox="0 0 20 20" id="tg" xmlns="http://www.w3.org/2000/svg"><path fill-rule="evenodd" clip-rule="evenodd" d="M3.125 0h13.75C18.601 0 20 1.4 20 3.125v13.75C20 18.601 18.6 20 16.875 20H3.125A3.125 3.125 0 0 1 0 16.875V3.125C0 1.399 1.4 0 3.125 0zm7.307 7.505c-.895.372-2.685 1.143-5.37 2.313-.435.173-.664.343-.685.508-.035.28.316.391.794.541l.201.064c.47.153 1.103.332 1.432.34.298.005.63-.117.998-.37 2.508-1.693 3.803-2.549 3.884-2.567.058-.013.137-.03.191.018.054.048.049.139.043.163-.035.148-1.412 1.43-2.125 2.092-.222.206-.38.353-.412.386-.072.075-.146.146-.217.215-.437.42-.764.736.018 1.252.376.248.677.453.978.657.327.223.654.446 1.077.723.108.071.211.144.311.216.382.272.725.516 1.148.477.246-.022.5-.254.63-.944.304-1.63.904-5.164 1.043-6.62a1.63 1.63 0 0 0-.016-.362.388.388 0 0 0-.13-.25.606.606 0 0 0-.358-.107c-.346.006-.877.191-3.435 1.255z"/></symbol><symbol viewBox="0 0 20 20" id="tw" xmlns="http://www.w3.org/2000/svg"><g clip-path="url(#gclip0_2_7)"><path d="M17.857 0H2.143C.96 0 0 .96 0 2.143v15.714C0 19.04.96 20 2.143 20h15.714C19.04 20 20 19.04 20 17.857V2.143C20 .96 19.04 0 17.857 0zm-2.183 7.09c.009.124.009.254.009.379 0 3.87-2.946 8.33-8.33 8.33-1.661 0-3.201-.482-4.496-1.312.237.026.464.035.705.035a5.87 5.87 0 0 0 3.634-1.25 2.932 2.932 0 0 1-2.736-2.03c.45.066.857.066 1.321-.055a2.928 2.928 0 0 1-2.343-2.874v-.036c.388.219.843.352 1.32.37A2.922 2.922 0 0 1 3.456 6.21c0-.545.143-1.045.398-1.478a8.314 8.314 0 0 0 6.035 3.063c-.415-1.987 1.072-3.599 2.857-3.599.844 0 1.603.353 2.139.925a5.738 5.738 0 0 0 1.857-.706 2.92 2.92 0 0 1-1.286 1.612 5.827 5.827 0 0 0 1.688-.456 6.165 6.165 0 0 1-1.469 1.518z"/></g><defs><clipPath id="gclip0_2_7"><path d="M0 0h20v20H0z"/></clipPath></defs></symbol><symbol viewBox="0 0 20 20" id="wp" xmlns="http://www.w3.org/2000/svg"><g clip-path="url(#hclip0_2_13)"><path d="M10 4.054a5.896 5.896 0 0 0-5.888 5.883c0 1.112.312 2.197.901 3.13l.139.223-.594 2.17 2.228-.585.214.13a5.869 5.869 0 0 0 2.996.82H10c3.241 0 5.95-2.637 5.95-5.883 0-1.571-.678-3.05-1.79-4.16A5.839 5.839 0 0 0 10 4.053zm3.46 8.41c-.148.415-.853.79-1.192.84-.563.084-1 .04-2.12-.442-1.773-.768-2.934-2.554-3.023-2.67-.09-.116-.723-.96-.723-1.83 0-.87.455-1.3.62-1.478a.644.644 0 0 1 .474-.223c.116 0 .236 0 .339.004.107.005.254-.04.397.304.147.352.5 1.223.545 1.312.044.09.076.192.013.308-.34.679-.7.652-.518.965.683 1.174 1.366 1.58 2.407 2.102.178.09.28.076.383-.044.103-.117.443-.518.559-.692.116-.179.236-.148.397-.09.16.058 1.031.487 1.21.576.178.09.294.134.339.206.04.084.04.442-.107.852zM17.857 0H2.143C.96 0 0 .96 0 2.143v15.714C0 19.04.96 20 2.143 20h15.714C19.04 20 20 19.04 20 17.857V2.143C20 .96 19.04 0 17.857 0zM9.996 17.018c-1.188 0-2.353-.3-3.384-.862l-3.755.987 1.005-3.67a7.054 7.054 0 0 1-.947-3.54c.005-3.902 3.179-7.076 7.08-7.076 1.893 0 3.67.737 5.01 2.076 1.334 1.34 2.138 3.116 2.138 5.009 0 3.902-3.246 7.076-7.147 7.076z"/></g><defs><clipPath id="hclip0_2_13"><path d="M0 0h20v20H0z"/></clipPath></defs></symbol></svg>