<?xml version="1.0" encoding="utf-8"?><svg xmlns="http://www.w3.org/2000/svg" xmlns:xlink="http://www.w3.org/1999/xlink"><symbol class="afill-indigo-500" viewBox="0 0 50 50" id="cart" xmlns="http://www.w3.org/2000/svg"><path d="M42.647 40.625H10.294c-.441 0-.882-.313-1.176-.625-.294-.313-.294-.938-.147-1.406l2.794-7.5L8.97 3.125H0V0h10.294c.735 0 1.324.625 1.47 1.406l2.942 29.688c0 .312 0 .468-.147.781L12.5 37.5h31.618l-1.47 3.125z"/><path d="M13.53 32.813l-.589-3.126 34.118-7.5V9.376H11.765V6.25h36.764c.883 0 1.471.625 1.471 1.563v15.625c0 .78-.441 1.406-1.176 1.562l-35.295 7.813zM44.117 50c-3.236 0-5.883-2.813-5.883-6.25 0-3.438 2.647-6.25 5.883-6.25 3.235 0 5.882 2.813 5.882 6.25 0 3.438-2.647 6.25-5.882 6.25zm0-9.375c-1.618 0-2.942 1.406-2.942 3.125s1.324 3.125 2.942 3.125c1.617 0 2.94-1.406 2.94-3.125s-1.323-3.125-2.94-3.125zM8.824 50c-3.236 0-5.883-2.813-5.883-6.25 0-3.438 2.647-6.25 5.883-6.25 3.235 0 5.882 2.813 5.882 6.25 0 3.438-2.647 6.25-5.882 6.25zm0-9.375c-1.618 0-2.942 1.406-2.942 3.125s1.324 3.125 2.942 3.125c1.617 0 2.94-1.406 2.94-3.125s-1.323-3.125-2.94-3.125z"/></symbol><symbol viewBox="0 0 20 20" id="fb" xmlns="http://www.w3.org/2000/svg"><path d="M17.857 0H2.143A2.143 2.143 0 0 0 0 2.143v15.714A2.143 2.143 0 0 0 2.143 20H8.27v-6.8H5.458V10H8.27V7.56c0-2.774 1.652-4.306 4.182-4.306 1.211 0 2.478.216 2.478.216v2.723h-1.396c-1.375 0-1.804.853-1.804 1.729V10h3.07l-.49 3.2h-2.58V20h6.127A2.143 2.143 0 0 0 20 17.857V2.143A2.143 2.143 0 0 0 17.857 0z"/></symbol><symbol class="cfill-indigo-500" viewBox="0 0 50 50" id="hat" xmlns="http://www.w3.org/2000/svg"><path d="M37.11 37.46L25 45.09l-12.11-7.63V29.4l-3.46-2.152v12.479L25 49.535l15.57-9.808v-12.48L37.11 29.4v8.06z"/><path d="M25 .568L.781 14.632v3.359L25 33.06l20.759-12.917v10.7h3.46v-16.21L25 .567zm17.3 17.295l-3.46 2.153L25 28.628l-13.84-8.612-3.46-2.153-2.397-1.492L25 4.932l19.697 11.44-2.398 1.491z"/></symbol><symbol class="dfill-indigo-500" viewBox="0 0 50 50" id="home" xmlns="http://www.w3.org/2000/svg"><path d="M26.106 3.581a1.563 1.563 0 0 0-2.212 0l-18.75 18.75a1.562 1.562 0 0 0-.457 1.107v21.875a1.562 1.562 0 0 0 1.563 1.562h14.063a1.562 1.562 0 0 0 1.562-1.563v-12.5h6.25v12.5a1.562 1.562 0 0 0 1.563 1.563H43.75a1.562 1.562 0 0 0 1.563-1.563V23.439a1.561 1.561 0 0 0-.457-1.107l-4.231-4.228V7.813a1.563 1.563 0 0 0-1.563-1.563h-3.124a1.563 1.563 0 0 0-1.563 1.562v4.041l-8.269-8.272zM7.812 43.75V24.084L25 6.897l17.188 17.187V43.75H31.25v-12.5a1.563 1.563 0 0 0-1.563-1.563h-9.375a1.562 1.562 0 0 0-1.562 1.563v12.5H7.812z"/></symbol><symbol viewBox="0 0 20 20" id="in" xmlns="http://www.w3.org/2000/svg"><g clip-path="url(#eclip0_2_11)"><path d="M18.125 0H1.875A1.88 1.88 0 0 0 0 1.875v16.25A1.88 1.88 0 0 0 1.875 20h16.25A1.88 1.88 0 0 0 20 18.125V1.875A1.88 1.88 0 0 0 18.125 0zM7.5 16.25H5V7.5h2.5v8.75zm-1.25-10a1.25 1.25 0 1 1 0-2.5 1.25 1.25 0 0 1 0 2.5zm10 10h-2.5v-5a1.25 1.25 0 0 0-2.5 0v5h-2.5V7.5h2.5v1.551c.515-.707 1.305-1.551 2.188-1.551 1.554 0 2.812 1.399 2.812 3.125v5.625z"/></g><defs><clipPath id="eclip0_2_11"><path d="M0 0h20v20H0z"/></clipPath></defs></symbol><symbol class="ffill-indigo-500" viewBox="0 0 490.2 490.2" id="plus" xmlns="http://www.w3.org/2000/svg"><path d="M418.5 418.5c95.6-95.6 95.6-251.2 0-346.8s-251.2-95.6-346.8 0-95.6 251.2 0 346.8 251.2 95.6 346.8 0zM89 89c86.1-86.1 226.1-86.1 312.2 0s86.1 226.1 0 312.2-226.1 86.1-312.2 0S3 175.1 89 89z"/><path d="M245.1 336.9c3.4 0 6.4-1.4 8.7-3.6 2.2-2.2 3.6-5.3 3.6-8.7v-67.3h67.3c3.4 0 6.4-1.4 8.7-3.6 2.2-2.2 3.6-5.3 3.6-8.7 0-6.8-5.5-12.3-12.2-12.2h-67.3v-67.3c0-6.8-5.5-12.3-12.2-12.2-6.8 0-12.3 5.5-12.2 12.2v67.3h-67.3c-6.8 0-12.3 5.5-12.2 12.2 0 6.8 5.5 12.3 12.2 12.2h67.3v67.3c-.3 6.9 5.2 12.4 12 12.4z"/></symbol><symbol viewBox="0 0 20 20" id="tg" xmlns="http://www.w3.org/2000/svg"><path fill-rule="evenodd" clip-rule="evenodd" d="M3.125 0h13.75C18.601 0 20 1.4 20 3.125v13.75C20 18.601 18.6 20 16.875 20H3.125A3.125 3.125 0 0 1 0 16.875V3.125C0 1.399 1.4 0 3.125 0zm7.307 7.505c-.895.372-2.685 1.143-5.37 2.313-.435.173-.664.343-.685.508-.035.28.316.391.794.541l.201.064c.47.153 1.103.332 1.432.34.298.005.63-.117.998-.37 2.508-1.693 3.803-2.549 3.884-2.567.058-.013.137-.03.191.018.054.048.049.139.043.163-.035.148-1.412 1.43-2.125 2.092-.222.206-.38.353-.412.386-.072.075-.146.146-.217.215-.437.42-.764.736.018 1.252.376.248.677.453.978.657.327.223.654.446 1.077.723.108.071.211.144.311.216.382.272.725.516 1.148.477.246-.022.5-.254.63-.944.304-1.63.904-5.164 1.043-6.62a1.63 1.63 0 0 0-.016-.362.388.388 0 0 0-.13-.25.606.606 0 0 0-.358-.107c-.346.006-.877.191-3.435 1.255z"/></symbol><symbol viewBox="0 0 20 20" id="tw" xmlns="http://www.w3.org/2000/svg"><g clip-path="url(#hclip0_2_7)"><path d="M17.857 0H2.143C.96 0 0 .96 0 2.143v15.714C0 19.04.96 20 2.143 20h15.714C19.04 20 20 19.04 20 17.857V2.143C20 .96 19.04 0 17.857 0zm-2.183 7.09c.009.124.009.254.009.379 0 3.87-2.946 8.33-8.33 8.33-1.661 0-3.201-.482-4.496-1.312.237.026.464.035.705.035a5.87 5.87 0 0 0 3.634-1.25 2.932 2.932 0 0 1-2.736-2.03c.45.066.857.066 1.321-.055a2.928 2.928 0 0 1-2.343-2.874v-.036c.388.219.843.352 1.32.37A2.922 2.922 0 0 1 3.456 6.21c0-.545.143-1.045.398-1.478a8.314 8.314 0 0 0 6.035 3.063c-.415-1.987 1.072-3.599 2.857-3.599.844 0 1.603.353 2.139.925a5.738 5.738 0 0 0 1.857-.706 2.92 2.92 0 0 1-1.286 1.612 5.827 5.827 0 0 0 1.688-.456 6.165 6.165 0 0 1-1.469 1.518z"/></g><defs><clipPath id="hclip0_2_7"><path d="M0 0h20v20H0z"/></clipPath></defs></symbol><symbol viewBox="0 0 20 20" id="wp" xmlns="http://www.w3.org/2000/svg"><g clip-path="url(#iclip0_2_13)"><path d="M10 4.054a5.896 5.896 0 0 0-5.888 5.883c0 1.112.312 2.197.901 3.13l.139.223-.594 2.17 2.228-.585.214.13a5.869 5.869 0 0 0 2.996.82H10c3.241 0 5.95-2.637 5.95-5.883 0-1.571-.678-3.05-1.79-4.16A5.839 5.839 0 0 0 10 4.053zm3.46 8.41c-.148.415-.853.79-1.192.84-.563.084-1 .04-2.12-.442-1.773-.768-2.934-2.554-3.023-2.67-.09-.116-.723-.96-.723-1.83 0-.87.455-1.3.62-1.478a.644.644 0 0 1 .474-.223c.116 0 .236 0 .339.004.107.005.254-.04.397.304.147.352.5 1.223.545 1.312.044.09.076.192.013.308-.34.679-.7.652-.518.965.683 1.174 1.366 1.58 2.407 2.102.178.09.28.076.383-.044.103-.117.443-.518.559-.692.116-.179.236-.148.397-.09.16.058 1.031.487 1.21.576.178.09.294.134.339.206.04.084.04.442-.107.852zM17.857 0H2.143C.96 0 0 .96 0 2.143v15.714C0 19.04.96 20 2.143 20h15.714C19.04 20 20 19.04 20 17.857V2.143C20 .96 19.04 0 17.857 0zM9.996 17.018c-1.188 0-2.353-.3-3.384-.862l-3.755.987 1.005-3.67a7.054 7.054 0 0 1-.947-3.54c.005-3.902 3.179-7.076 7.08-7.076 1.893 0 3.67.737 5.01 2.076 1.334 1.34 2.138 3.116 2.138 5.009 0 3.902-3.246 7.076-7.147 7.076z"/></g><defs><clipPath id="iclip0_2_13"><path d="M0 0h20v20H0z"/></clipPath></defs></symbol></svg>